<?xml version="1.0" encoding="UTF-8" standalone="no"?>
<!DOCTYPE svg PUBLIC "-//W3C//DTD SVG 1.1//EN" "http://www.w3.org/Graphics/SVG/1.1/DTD/svg11.dtd">
<svg width="100%" height="100%" viewBox="0 0 128 128" version="1.1" xmlns="http://www.w3.org/2000/svg" xmlns:xlink="http://www.w3.org/1999/xlink" xml:space="preserve" xmlns:serif="http://www.serif.com/" style="fill-rule:evenodd;clip-rule:evenodd;stroke-linejoin:round;stroke-miterlimit:2;">
    <g transform="matrix(0.50774,-7.46508e-20,7.46508e-20,-0.50835,2.5,123.668)">
        <path d="M0,5.25L0,195L23.25,195L23.25,216L65.25,216L65.25,195L81.75,195L81.75,213.75L97.5,213.75L97.5,229.5L180.75,229.5L180.75,214.5L195.75,214.5L195.75,195L242.25,195L242.25,5.25L0,5.25ZM159,31.5L159,45.75L176.25,45.75L176.25,61.5L193.5,61.5L193.5,109.5L176.25,109.5L176.25,126L157.5,126L157.5,141L119.148,141L119.387,133.5L119.625,125.996L110.812,126L102,126L102,109.5L84.75,109.5L84.75,61.5L101.25,61.5L101.25,45.75L119.25,45.75L119.25,31.5L159,31.5ZM123,55.5L123,67.5L110.25,67.5L110.25,105.75L123.75,105.75L123.75,117L156,117L156,105.75L168,105.75L168,67.5L156.75,67.5L156.75,55.5L123,55.5ZM87,130.5L87,144.75L102.75,144.75L102.75,162L173.738,162L173.059,145.5L189.75,145.5L189.75,130.5L224.25,130.5L224.25,176.25L18,176.25L18,130.5L87,130.5ZM40.5,144L40.5,162L62.25,162L62.25,144L40.5,144ZM166.5,195L166.5,210.75L112.5,210.75L112.5,195L166.5,195Z" style="fill-rule:nonzero;"/>
    </g>
</svg>
